<?xml version="1.0" standalone="no"?>
<svg width="634" height="600" viewBox="0 0 634 600" xmlns="http://www.w3.org/2000/svg">
<title>A form of the Triquetra symbol which has the exact geometrical proportions to be composed of three overlapping Vesica piscis symbols (ribbons version)</title>
<g fill="none" stroke="#ffffff" stroke-width="30" transform="translate(-11.44,612.44)scale(1.19,-1.19)">
<path stroke-width="50" d="M516,69C516,201.548,408.548,309,276,309C143.452,309,36,201.548,36,69C72.4844,47.9355,113.871,36.8459,156,36.8459C288.548,36.8459,396,144.298,396,276.846C396,362.59,350.256,441.82,276,484.692C201.744,441.82,156,362.59,156,276.846C156,144.298,263.452,36.8459,396,36.8459C438.129,36.8459,479.515,47.9355,516,69Z"/>
<path stroke="#000000" d="M515.864,60.9255C515.955,63.616,516,66.3081,516,69C516,201.548,408.548,309,276,309C143.452,309,36,201.548,36,69C36,66.3081,36.0454,63.616,36.1357,60.9255
M29.0752,73.1548C67.1572,49.425,111.13,36.8459,156,36.8459C288.548,36.8459,396,144.298,396,276.846C396,365.481,347.147,446.902,268.939,488.612
M283.061,488.612C204.853,446.902,156,365.482,156,276.846C156,144.298,263.452,36.8459,396,36.8459C440.87,36.8459,484.843,49.425,522.925,73.1548"/>
<path stroke-width="10" d="M515.983,66.1855C515.994,67.1235,516,68.062,516,69C516,201.548,408.548,309,276,309C143.452,309,36,201.548,36,69C36,68.062,36.0056,67.1235,36.0164,66.1855
M33.5708,70.4214C70.627,48.4436,112.917,36.8459,156,36.8459C288.548,36.8459,396,144.298,396,276.846C396,363.596,349.186,443.594,273.554,486.085
M278.446,486.085C202.815,443.595,156,363.596,156,276.846C156,144.298,263.452,36.8459,396,36.8459C439.083,36.8459,481.373,48.4436,518.429,70.4214"/>
<path stroke="#000000" d="M174.572,286.514C161.909,280.609,149.786,273.61,138.342,265.596
M395.087,255.929C395.695,262.885,396,269.864,396,276.846C396,283.828,395.695,290.808,395.087,297.763
M258.342,80.2495C269.786,72.2361,281.909,65.2366,294.572,59.332"/>
<path stroke-width="10" d="M178.383,288.251C163.063,281.43,148.499,273.021,134.931,263.164
M394.685,251.759C395.561,260.093,396,268.467,396,276.846C396,285.225,395.561,293.599,394.685,301.933
M254.931,82.6819C268.499,72.8245,283.063,64.416,298.383,57.595"/></g></svg>