<svg width="507" height="506" viewBox="0 0 507 506" fill="none" xmlns="http://www.w3.org/2000/svg">
<path d="M253.5 4C236.409 4 219.755 5.78782 203.6 9.05782V47.5751C181.956 52.7973 161.684 61.1749 143.221 72.4752L115.901 45.2407C101.929 54.4923 89.1419 65.3463 77.2906 77.1439C65.5018 88.9391 54.5862 101.7 45.3547 115.663L72.6125 142.898C61.3226 161.367 52.902 181.567 47.6625 203.199H9.1148C5.80892 219.291 4 235.949 4 252.999C4 270.05 5.80892 286.708 9.1148 302.8H47.6625C52.902 324.431 61.3226 344.632 72.6125 363.107L45.3547 390.342C54.5862 404.298 65.5018 417.06 77.2906 428.856C89.1419 440.652 101.929 451.509 115.901 460.759L143.221 433.525C161.684 444.829 181.956 453.202 203.6 458.425V496.945C219.755 500.213 236.409 502 253.5 502C270.591 502 287.307 500.213 303.4 496.945V458.425C325.107 453.202 345.316 444.829 363.841 433.525L391.162 460.759C405.134 451.509 417.921 440.652 429.709 428.856C441.561 417.06 452.414 404.298 461.708 390.342L434.388 363.107C445.74 344.632 454.098 324.431 459.338 302.8H497.948C501.254 286.708 503 270.05 503 252.999C503 235.949 501.254 219.291 497.948 203.199H459.338C454.098 181.567 445.74 161.367 434.388 142.898L461.708 115.663C452.414 101.7 441.561 88.9391 429.709 77.1439C417.921 65.3463 405.134 54.4923 391.162 45.2407L363.841 72.4752C345.316 61.1749 325.107 52.7973 303.4 47.5751V9.05782C287.307 5.78782 270.591 4 253.5 4ZM253.5 128.5C322.362 128.5 378.25 184.276 378.25 253.001C378.25 321.725 322.362 377.501 253.5 377.501C184.638 377.501 128.75 321.725 128.75 253.001C128.75 184.276 184.638 128.5 253.5 128.5Z" fill="rgba(0,0,0,0)" stroke="#BF360C" stroke-width="7" stroke-linecap="round" stroke-linejoin="round"/>
</svg>
